HIERARCHY
ROOT newVegas:Hips
{
	OFFSET 0.000000 96.479958 0.000000
	CHANNELS 6 Xposition Yposition Zposition Xrotation Yrotation Zrotation
	JOINT newVegas:Pelvis
	{
		OFFSET 0.000000 0.000000 0.000000
		CHANNELS 3 Xrotation Yrotation Zrotation
		JOINT newVegas:LeftUpLeg
		{
			OFFSET 18.735201 -5.666702 -4.541200
			CHANNELS 3 Xrotation Yrotation Zrotation
			JOINT newVegas:LeftLeg
			{
				OFFSET -0.021200 -31.938179 0.493100
				CHANNELS 3 Xrotation Yrotation Zrotation
				JOINT newVegas:LeftFoot
				{
					OFFSET 0.021200 -31.938179 -4.336299
					CHANNELS 3 Xrotation Yrotation Zrotation
					JOINT newVegas:LeftToeBase
					{
						OFFSET 0.943001 -26.722000 15.023500
						CHANNELS 3 Xrotation Yrotation Zrotation
						End Site
						{
							OFFSET 0.000000 30.670183 0.000000
						}
					}
				}
				JOINT newVegas:Left_PantLeg
				{
					OFFSET 0.663870 -9.044666 -1.108900
					CHANNELS 3 Xrotation Yrotation Zrotation
					End Site
					{
						OFFSET 1.415995 20.635357 0.000000
					}
				}
			}
		}
		JOINT newVegas:RightUpLeg
		{
			OFFSET -18.735201 -5.666702 -4.541200
			CHANNELS 3 Xrotation Yrotation Zrotation
			JOINT newVegas:RightLeg
			{
				OFFSET 0.018946 -31.938133 0.493100
				CHANNELS 3 Xrotation Yrotation Zrotation
				JOINT newVegas:RightFoot
				{
					OFFSET -0.018946 -31.938126 -4.336299
					CHANNELS 3 Xrotation Yrotation Zrotation
					JOINT newVegas:RightToeBase
					{
						OFFSET -0.943001 -26.722004 15.023500
						CHANNELS 3 Xrotation Yrotation Zrotation
						End Site
						{
							OFFSET 0.000000 30.670187 0.000000
						}
					}
				}
				JOINT newVegas:Right_PantLeg
				{
					OFFSET -0.661674 -9.044716 -1.108900
					CHANNELS 3 Xrotation Yrotation Zrotation
					End Site
					{
						OFFSET -1.415958 20.635269 0.000000
					}
				}
			}
		}
	}
	JOINT newVegas:Spine
	{
		OFFSET 0.000000 10.199997 -0.299500
		CHANNELS 3 Xrotation Yrotation Zrotation
		JOINT newVegas:Spine1
		{
			OFFSET 0.000000 11.900002 -1.516600
			CHANNELS 3 Xrotation Yrotation Zrotation
			JOINT newVegas:Spine2
			{
				OFFSET 0.000000 13.600006 -2.842500
				CHANNELS 3 Xrotation Yrotation Zrotation
				JOINT newVegas:Neck
				{
					OFFSET 0.000000 9.624100 -2.890100
					CHANNELS 3 Xrotation Yrotation Zrotation
					JOINT newVegas:Head
					{
						OFFSET 0.000000 14.068802 -1.351900
						CHANNELS 3 Xrotation Yrotation Zrotation
						JOINT newVegas:Hair_Back
						{
							OFFSET 0.000000 3.231903 -17.524799
							CHANNELS 3 Xrotation Yrotation Zrotation
							End Site
							{
								OFFSET 0.000000 19.849884 0.000000
							}
						}
						JOINT newVegas:Hair_Front
						{
							OFFSET 0.000000 31.260406 4.573800
							CHANNELS 3 Xrotation Yrotation Zrotation
							JOINT newVegas:Hair_Front1
							{
								OFFSET 0.000000 2.284103 11.993300
								CHANNELS 3 Xrotation Yrotation Zrotation
								JOINT newVegas:Hair_Front2
								{
									OFFSET 0.000000 2.284103 11.993300
									CHANNELS 3 Xrotation Yrotation Zrotation
									End Site
									{
										OFFSET 0.000000 12.208862 0.000000
									}
								}
							}
						}
						JOINT newVegas:Jowel
						{
							OFFSET 0.000000 -7.458206 6.864100
							CHANNELS 3 Xrotation Yrotation Zrotation
							End Site
							{
								OFFSET 0.000000 19.849884 0.000000
							}
						}
					}
				}
				JOINT newVegas:LeftShoulder
				{
					OFFSET 15.263000 10.923401 -0.547700
					CHANNELS 3 Xrotation Yrotation Zrotation
					JOINT newVegas:LeftArm
					{
						OFFSET 25.438599 -2.830597 -13.032500
						CHANNELS 3 Xrotation Yrotation Zrotation
						JOINT newVegas:LeftForeArm
						{
							OFFSET 29.960503 0.000000 0.000000
							CHANNELS 3 Xrotation Yrotation Zrotation
							JOINT newVegas:LeftHand
							{
								OFFSET 27.849251 0.000000 0.000000
								CHANNELS 3 Xrotation Yrotation Zrotation
								JOINT newVegas:LeftHandThumb1
								{
									OFFSET 4.487587 -3.305161 6.305391
									CHANNELS 3 Xrotation Yrotation Zrotation
									JOINT newVegas:LeftHandThumb2
									{
										OFFSET 5.480453 -3.164139 3.164143
										CHANNELS 3 Xrotation Yrotation Zrotation
										JOINT newVegas:LeftHandThumb3
										{
											OFFSET 5.159721 -2.978973 2.978967
											CHANNELS 3 Xrotation Yrotation Zrotation
											End Site
											{
												OFFSET 2.494507 5.926697 1.738678
											}
										}
									}
								}
								JOINT newVegas:LeftHandIndex1
								{
									OFFSET 18.578728 -0.527832 5.208049
									CHANNELS 3 Xrotation Yrotation Zrotation
									JOINT newVegas:LeftHandIndex2
									{
										OFFSET 3.192009 0.000000 0.000000
										CHANNELS 3 Xrotation Yrotation Zrotation
										JOINT newVegas:LeftHandIndex3
										{
											OFFSET 3.835129 0.000000 0.000000
											CHANNELS 3 Xrotation Yrotation Zrotation
											End Site
											{
												OFFSET -0.034599 3.816971 0.371180
											}
										}
									}
								}
								JOINT newVegas:LeftHandMiddle1
								{
									OFFSET 18.476105 0.000000 0.000000
									CHANNELS 3 Xrotation Yrotation Zrotation
									JOINT newVegas:LeftHandMiddle2
									{
										OFFSET 3.324875 0.000000 0.000000
										CHANNELS 3 Xrotation Yrotation Zrotation
										JOINT newVegas:LeftHandMiddle3
										{
											OFFSET 4.596550 0.000000 0.000000
											CHANNELS 3 Xrotation Yrotation Zrotation
											End Site
											{
												OFFSET 0.057701 4.578827 0.399218
											}
										}
									}
								}
								JOINT newVegas:LeftHandRing1
								{
									OFFSET 17.732719 0.121887 -4.201567
									CHANNELS 3 Xrotation Yrotation Zrotation
									JOINT newVegas:LeftHandRing2
									{
										OFFSET 2.733170 0.000000 0.000000
										CHANNELS 3 Xrotation Yrotation Zrotation
										JOINT newVegas:LeftHandRing3
										{
											OFFSET 3.178268 0.000000 0.000000
											CHANNELS 3 Xrotation Yrotation Zrotation
											End Site
											{
												OFFSET 0.119102 3.170624 0.185394
											}
										}
									}
								}
								JOINT newVegas:LeftHandPinky1
								{
									OFFSET 15.989624 -0.606689 -7.535461
									CHANNELS 3 Xrotation Yrotation Zrotation
									JOINT newVegas:LeftHandPinky2
									{
										OFFSET 2.538986 0.000000 0.000000
										CHANNELS 3 Xrotation Yrotation Zrotation
										JOINT newVegas:LeftHandPinky3
										{
											OFFSET 2.593102 0.000000 0.000000
											CHANNELS 3 Xrotation Yrotation Zrotation
											End Site
											{
												OFFSET -0.150902 2.584198 0.152708
											}
										}
									}
								}
							}
							JOINT newVegas:Left_Sleeve
							{
								OFFSET 0.267448 -0.649796 0.577675
								CHANNELS 3 Xrotation Yrotation Zrotation
								End Site
								{
									OFFSET 0.000000 15.991241 0.000000
								}
							}
							JOINT newVegas:Left_CapeC
							{
								OFFSET 15.715958 -8.608795 -6.935905
								CHANNELS 3 Xrotation Yrotation Zrotation
								JOINT newVegas:Left_CapeC1
								{
									OFFSET 0.000000 -8.688499 0.000000
									CHANNELS 3 Xrotation Yrotation Zrotation
									End Site
									{
										OFFSET 0.000000 8.688499 0.000000
									}
								}
							}
						}
						JOINT newVegas:Left_CapeB
						{
							OFFSET 26.118385 -8.608795 -7.079235
							CHANNELS 3 Xrotation Yrotation Zrotation
							JOINT newVegas:Left_CapeB1
							{
								OFFSET 0.000000 -8.688499 0.000000
								CHANNELS 3 Xrotation Yrotation Zrotation
								End Site
								{
									OFFSET 0.000000 8.688499 0.000000
								}
							}
						}
						JOINT newVegas:Left_CapeA
						{
							OFFSET 5.115639 -8.608795 -10.395809
							CHANNELS 3 Xrotation Yrotation Zrotation
							JOINT newVegas:Left_CapeA1
							{
								OFFSET 0.000000 -8.688499 0.000000
								CHANNELS 3 Xrotation Yrotation Zrotation
								End Site
								{
									OFFSET 0.000000 8.688499 0.000000
								}
							}
						}
					}
				}
				JOINT newVegas:RightShoulder
				{
					OFFSET -15.263000 10.923401 -0.547700
					CHANNELS 3 Xrotation Yrotation Zrotation
					JOINT newVegas:RightArm
					{
						OFFSET -25.438599 -2.830597 -13.032500
						CHANNELS 3 Xrotation Yrotation Zrotation
						JOINT newVegas:RightForeArm
						{
							OFFSET -29.960503 0.000000 0.000000
							CHANNELS 3 Xrotation Yrotation Zrotation
							JOINT newVegas:RightHand
							{
								OFFSET -27.849251 0.000000 0.000000
								CHANNELS 3 Xrotation Yrotation Zrotation
								JOINT newVegas:RightHandThumb1
								{
									OFFSET -4.487587 -3.305161 6.305391
									CHANNELS 3 Xrotation Yrotation Zrotation
									JOINT newVegas:RightHandThumb2
									{
										OFFSET -5.480453 -3.164139 3.164143
										CHANNELS 3 Xrotation Yrotation Zrotation
										JOINT newVegas:RightHandThumb3
										{
											OFFSET -5.159721 -2.978973 2.978967
											CHANNELS 3 Xrotation Yrotation Zrotation
											End Site
											{
												OFFSET -2.494507 5.926697 1.738678
											}
										}
									}
								}
								JOINT newVegas:RightHandIndex1
								{
									OFFSET -18.578728 -0.527832 5.208049
									CHANNELS 3 Xrotation Yrotation Zrotation
									JOINT newVegas:RightHandIndex2
									{
										OFFSET -3.192009 0.000000 0.000000
										CHANNELS 3 Xrotation Yrotation Zrotation
										JOINT newVegas:RightHandIndex3
										{
											OFFSET -3.835129 0.000000 0.000000
											CHANNELS 3 Xrotation Yrotation Zrotation
											End Site
											{
												OFFSET 0.034599 3.816971 0.371180
											}
										}
									}
								}
								JOINT newVegas:RightHandMiddle1
								{
									OFFSET -18.476105 0.000000 0.000000
									CHANNELS 3 Xrotation Yrotation Zrotation
									JOINT newVegas:RightHandMiddle2
									{
										OFFSET -3.324875 0.000000 0.000000
										CHANNELS 3 Xrotation Yrotation Zrotation
										JOINT newVegas:RightHandMiddle3
										{
											OFFSET -4.596550 0.000000 0.000000
											CHANNELS 3 Xrotation Yrotation Zrotation
											End Site
											{
												OFFSET -0.057701 4.578827 0.399218
											}
										}
									}
								}
								JOINT newVegas:RightHandRing1
								{
									OFFSET -17.732719 0.121887 -4.201567
									CHANNELS 3 Xrotation Yrotation Zrotation
									JOINT newVegas:RightHandRing2
									{
										OFFSET -2.733170 0.000000 0.000000
										CHANNELS 3 Xrotation Yrotation Zrotation
										JOINT newVegas:RightHandRing3
										{
											OFFSET -3.178268 0.000000 0.000000
											CHANNELS 3 Xrotation Yrotation Zrotation
											End Site
											{
												OFFSET -0.119102 3.170624 0.185394
											}
										}
									}
								}
								JOINT newVegas:RightHandPinky1
								{
									OFFSET -15.989624 -0.606689 -7.535461
									CHANNELS 3 Xrotation Yrotation Zrotation
									JOINT newVegas:RightHandPinky2
									{
										OFFSET -2.538986 0.000000 0.000000
										CHANNELS 3 Xrotation Yrotation Zrotation
										JOINT newVegas:RightHandPinky3
										{
											OFFSET -2.593102 0.000000 0.000000
											CHANNELS 3 Xrotation Yrotation Zrotation
											End Site
											{
												OFFSET 0.150902 2.584198 0.152708
											}
										}
									}
								}
							}
							JOINT newVegas:Right_CapeC
							{
								OFFSET -15.715958 -8.608795 -6.935905
								CHANNELS 3 Xrotation Yrotation Zrotation
								JOINT newVegas:Right_CapeC1
								{
									OFFSET 0.000000 -8.688499 0.000000
									CHANNELS 3 Xrotation Yrotation Zrotation
									End Site
									{
										OFFSET 0.000000 8.688499 0.000000
									}
								}
							}
							JOINT newVegas:Right_Sleeve
							{
								OFFSET -0.267448 -0.649994 0.577675
								CHANNELS 3 Xrotation Yrotation Zrotation
								End Site
								{
									OFFSET 0.000000 15.991302 0.000000
								}
							}
						}
						JOINT newVegas:Right_CapeA
						{
							OFFSET -5.115540 -8.608795 -10.395824
							CHANNELS 3 Xrotation Yrotation Zrotation
							JOINT newVegas:Right_CapeA1
							{
								OFFSET 0.000000 -8.688499 0.000000
								CHANNELS 3 Xrotation Yrotation Zrotation
								End Site
								{
									OFFSET 0.000000 8.688499 0.000000
								}
							}
						}
						JOINT newVegas:Right_CapeB
						{
							OFFSET -26.118187 -8.608795 -7.079266
							CHANNELS 3 Xrotation Yrotation Zrotation
							JOINT newVegas:Right_CapeB1
							{
								OFFSET 0.000000 -8.688499 0.000000
								CHANNELS 3 Xrotation Yrotation Zrotation
								End Site
								{
									OFFSET 0.000000 8.688499 0.000000
								}
							}
						}
					}
				}
				JOINT newVegas:Left_Collar
				{
					OFFSET 18.625099 8.655502 8.828100
					CHANNELS 3 Xrotation Yrotation Zrotation
					JOINT newVegas:Left_Collar1
					{
						OFFSET 14.783401 10.540405 -1.259500
						CHANNELS 3 Xrotation Yrotation Zrotation
						End Site
						{
							OFFSET 0.000000 18.199875 0.000000
						}
					}
				}
				JOINT newVegas:Collar_Back
				{
					OFFSET 0.000000 15.630707 -20.132601
					CHANNELS 3 Xrotation Yrotation Zrotation
					End Site
					{
						OFFSET 0.000000 22.523010 0.000000
					}
				}
				JOINT newVegas:Left_Peck
				{
					OFFSET 17.239599 -5.132599 25.482599
					CHANNELS 3 Xrotation Yrotation Zrotation
					End Site
					{
						OFFSET 0.000000 22.523010 0.000000
					}
				}
				JOINT newVegas:Right_Peck
				{
					OFFSET -17.239599 -5.132202 25.482599
					CHANNELS 3 Xrotation Yrotation Zrotation
					End Site
					{
						OFFSET 0.000000 22.523010 0.000000
					}
				}
				JOINT newVegas:Right_Collar
				{
					OFFSET -18.625099 8.655792 8.828100
					CHANNELS 3 Xrotation Yrotation Zrotation
					JOINT newVegas:Right_Collar1
					{
						OFFSET -14.783401 10.539993 -1.259500
						CHANNELS 3 Xrotation Yrotation Zrotation
						End Site
						{
							OFFSET 0.000000 18.199631 0.000000
						}
					}
				}
			}
		}
		JOINT newVegas:Belly
		{
			OFFSET 0.000000 -6.540398 9.014299
			CHANNELS 3 Xrotation Yrotation Zrotation
			End Site
			{
				OFFSET 0.000000 11.566666 0.000000
			}
		}
	}
	JOINT newVegas:ElvisFacialAnim_Joint
	{
		OFFSET 1.000000 -95.330101 -8.825800
		CHANNELS 3 Xrotation Yrotation Zrotation
		End Site
		{
			OFFSET 0.000000 35.315800 0.000000
		}
	}
}
MOTION
Frames: 4
Frame Time: 0.016667
-0.059358 109.565186 2.766197 -90.676861 -2.027349 1.708078 -0.000000 0.000000 0.000000 -10.712095 17.932431 19.798268 12.568703 0.379729 1.440283 21.703884 29.940363 -28.444202 -0.000000 -0.000002 0.000000 -0.000000 0.000000 -0.000000 -14.220182 -16.528846 -21.781584 14.517605 -4.819878 -4.597104 32.009972 -29.972844 33.493383 0.000000 -0.000001 0.000000 -0.000000 0.000001 0.000001 0.643889 -0.166313 -0.783018 0.768344 0.010520 -0.441587 0.794643 0.003108 -0.423897 -1.925773 1.601828 -3.352909 -1.925772 1.601827 -3.352911 -0.000000 -0.000000 -0.000000 -1.925741 1.601828 -3.352912 -1.925713 1.601836 -3.352919 -0.000000 0.000000 -0.000001 -0.000000 -0.000000 -0.000000 0.826369 -6.003513 -3.769292 44.058169 -39.817062 -34.619558 -0.000173 -83.309477 -0.000164 -22.984408 -8.371322 7.116309 -1.945766 1.585341 13.204806 8.601840 21.114953 -0.258285 0.000003 -0.000003 -0.000001 0.776297 5.158045 -28.512490 0.566022 2.514177 -25.370939 -0.000001 0.000000 -0.000001 0.776307 5.158030 -28.512490 0.566012 2.514175 -25.370929 -0.000003 0.000001 -0.000000 0.776302 5.158029 -28.512490 0.351475 2.000422 -19.928006 -0.000001 -0.000001 -0.000000 0.776301 5.158045 -28.512500 0.064897 0.870531 -8.527014 -0.000001 -0.000003 -0.000000 0.000000 -0.000003 0.000001 0.000000 -0.000003 0.000001 0.000000 -0.000004 0.000001 -0.000002 -0.000001 0.000000 -0.000002 -0.000002 -0.000000 -0.000002 -0.000001 0.000000 -0.000001 -0.000000 0.000001 0.511996 4.220234 2.974418 -4.382362 2.494188 83.944172 0.000040 129.402401 -0.000048 -0.000543 -5.590400 64.849620 -1.120916 -3.665712 -6.555855 8.244827 -30.620786 -3.274796 -0.000002 -0.000004 0.000001 4.540609 -8.344330 48.387389 6.575539 -4.244513 114.349094 -0.000000 0.000002 -0.000002 2.375470 -6.542191 44.640214 7.222595 -3.888168 123.454809 -0.000005 -0.000001 0.000000 2.745571 -6.923849 44.442292 7.225002 -3.886571 123.490312 0.000004 0.000001 0.000001 -10.268033 -14.528509 47.436285 6.314133 -4.353025 110.862918 -0.000003 0.000002 -0.000002 0.000000 -0.000002 -0.000000 0.000000 -0.000002 -0.000000 0.000000 -0.000002 -0.000000 -0.000000 -0.000001 0.000000 -0.000000 -0.000001 0.000000 -0.000000 -0.000001 0.000000 -0.000000 -0.000001 0.000000 -0.000000 0.000000 -0.000000 -0.000000 0.000000 -0.000000 -0.000000 0.000000 -0.000000 -0.000000 0.000000 -0.000000 -0.000000 0.000000 -0.000000 -0.000000 0.000000 -0.000000 -0.000000 0.000000 -0.000000 -0.000000 -0.000000 0.000000 -0.000000 0.000000 0.000000 
-0.055675 109.564621 2.766121 -90.684524 -2.022948 1.706152 0.000000 0.000000 0.000000 -10.711699 17.934156 19.798726 12.580423 0.385255 1.440317 21.695150 29.938901 -28.437593 0.000001 0.000003 -0.000000 -0.000000 0.000001 0.000000 -14.204292 -16.531119 -21.781762 14.510692 -4.829199 -4.597166 32.011085 -29.972082 33.500500 -0.000001 -0.000000 0.000000 -0.000001 0.000001 -0.000000 0.644229 -0.166559 -0.776472 0.775539 0.010199 -0.441929 0.799325 0.002338 -0.423853 -1.934868 1.614334 -3.345712 -1.934901 1.614333 -3.345713 -0.000000 0.000000 0.000000 -1.934824 1.614333 -3.345713 -1.934948 1.614334 -3.345713 0.000000 0.000000 -0.000001 -0.000000 0.000000 0.000000 0.821171 -6.021021 -3.761134 44.049478 -39.812995 -34.639052 -0.000085 -83.307148 -0.000052 -22.981563 -8.387151 7.124594 -1.945764 1.585341 13.204801 8.601843 21.114951 -0.258277 0.000002 -0.000002 0.000002 0.776301 5.158043 -28.512481 0.566017 2.514179 -25.370937 -0.000000 0.000002 0.000001 0.776310 5.158027 -28.512490 0.566014 2.514177 -25.370932 0.000000 0.000002 0.000001 0.776305 5.158023 -28.512486 0.351474 2.000422 -19.928008 -0.000000 -0.000001 0.000002 0.776302 5.158041 -28.512495 0.064896 0.870536 -8.527013 0.000001 -0.000002 -0.000001 0.000000 -0.000003 -0.000000 0.000000 -0.000003 -0.000000 0.000000 -0.000003 0.000000 0.000000 -0.000001 -0.000000 0.000000 -0.000002 0.000000 0.000000 -0.000001 -0.000000 0.000001 -0.000000 0.000001 0.506621 4.242360 2.977802 -4.368373 2.476191 83.932827 0.000041 129.413520 -0.000048 -0.003261 -5.593566 64.841923 -1.120910 -3.665711 -6.555851 8.244824 -30.620790 -3.274794 -0.000002 -0.000004 -0.000001 4.540612 -8.344326 48.387399 6.575538 -4.244510 114.349087 -0.000003 0.000001 -0.000001 2.375479 -6.542186 44.640214 7.222598 -3.888165 123.454809 0.000001 -0.000001 -0.000002 2.745582 -6.923844 44.442292 7.224996 -3.886571 123.490312 0.000001 -0.000001 0.000003 -10.268031 -14.528511 47.436296 6.314130 -4.353023 110.862925 -0.000000 0.000005 0.000002 0.000000 -0.000001 -0.000000 0.000000 -0.000001 -0.000000 0.000000 -0.000001 -0.000000 -0.000000 0.000001 0.000000 0.000000 0.000001 0.000000 -0.000000 0.000001 0.000000 0.000000 0.000001 0.000000 -0.000000 -0.000000 -0.000000 -0.000000 -0.000000 -0.000000 -0.000000 -0.000000 -0.000000 -0.000000 -0.000000 -0.000000 -0.000000 -0.000000 -0.000000 -0.000000 -0.000000 -0.000000 -0.000000 -0.000000 -0.000000 0.000000 0.000000 -0.000000 0.000000 0.000000 0.000000 
-0.051485 109.563736 2.766922 -90.692208 -2.018494 1.704021 -0.000000 0.000000 0.000000 -10.709998 17.935679 19.799634 12.592266 0.388844 1.440394 21.686897 29.936265 -28.435864 0.000001 -0.000003 0.000000 -0.000000 -0.000001 0.000002 -14.189382 -16.533057 -21.782117 14.506391 -4.840754 -4.597181 32.011293 -29.971335 33.508372 0.000000 -0.000001 0.000001 -0.000000 -0.000001 -0.000001 0.644478 -0.166754 -0.768963 0.783323 0.010057 -0.442169 0.801151 0.001820 -0.423847 -1.949519 1.628010 -3.338570 -1.949514 1.628011 -3.338571 -0.000000 0.000000 0.000000 -1.949512 1.628016 -3.338572 -1.949558 1.628007 -3.338567 -0.000000 0.000000 0.000001 -0.000000 0.000000 -0.000000 0.816272 -6.034781 -3.754559 44.044895 -39.812343 -34.650171 0.000094 -83.304136 0.000104 -22.980130 -8.404223 7.133034 -1.945765 1.585344 13.204806 8.601844 21.114951 -0.258285 0.000001 -0.000004 -0.000001 0.776301 5.158044 -28.512490 0.566018 2.514177 -25.370937 0.000001 -0.000001 0.000001 0.776309 5.158033 -28.512490 0.566013 2.514174 -25.370931 0.000002 0.000002 -0.000000 0.776305 5.158028 -28.512486 0.351472 2.000420 -19.928009 0.000001 -0.000001 0.000002 0.776300 5.158047 -28.512498 0.064897 0.870532 -8.527013 0.000002 0.000000 0.000000 0.000000 0.000002 -0.000001 0.000000 0.000002 -0.000001 0.000000 0.000002 -0.000001 0.000000 0.000001 0.000000 0.000000 0.000000 0.000000 0.000000 0.000001 0.000000 0.000001 0.000002 0.000002 0.501672 4.258664 2.981407 -4.356467 2.463914 83.921872 0.000027 129.421921 -0.000015 -0.006374 -5.596621 64.834198 -1.120917 -3.665713 -6.555855 8.244823 -30.620790 -3.274800 0.000001 0.000001 0.000001 4.540612 -8.344326 48.387389 6.575538 -4.244513 114.349087 0.000002 -0.000000 -0.000002 2.375473 -6.542187 44.640211 7.222593 -3.888166 123.454809 0.000000 0.000002 0.000002 2.745574 -6.923846 44.442289 7.225000 -3.886573 123.490312 -0.000003 0.000001 -0.000001 -10.268031 -14.528507 47.436292 6.314128 -4.353028 110.862925 -0.000000 0.000003 0.000001 0.000000 -0.000002 -0.000000 0.000000 -0.000004 -0.000001 0.000000 -0.000002 -0.000001 0.000000 0.000001 0.000000 0.000000 0.000001 0.000000 0.000000 0.000001 0.000000 0.000000 0.000001 0.000000 -0.000000 -0.000000 -0.000000 -0.000000 -0.000000 -0.000000 -0.000000 -0.000000 -0.000000 -0.000000 -0.000000 -0.000000 -0.000000 -0.000000 -0.000000 -0.000000 -0.000000 -0.000000 -0.000000 -0.000000 -0.000000 -0.000000 0.000000 -0.000000 -0.000000 0.000000 0.000000 
-0.046347 109.563171 2.769615 -90.699154 -2.014017 1.701482 0.000000 0.000000 -0.000000 -10.714023 17.934434 19.804834 12.594748 0.347421 1.440662 21.698941 29.928666 -28.445441 0.000000 0.000000 -0.000000 0.000000 0.000001 -0.000002 -14.186954 -16.530381 -21.786145 14.509671 -4.826264 -4.597339 32.023687 -29.969743 33.515151 0.000000 0.000001 -0.000000 0.000001 -0.000001 -0.000002 0.644665 -0.166895 -0.760468 0.790635 0.010041 -0.442317 0.802111 0.001533 -0.423876 -1.968844 1.642457 -3.331671 -1.968837 1.642455 -3.331668 -0.000000 -0.000000 0.000000 -1.968814 1.642459 -3.331672 -1.968840 1.642450 -3.331666 0.000000 -0.000000 0.000000 -0.000000 -0.000000 0.000000 0.814088 -6.042071 -3.750281 44.046346 -39.816212 -34.649253 0.000096 -83.299396 0.000122 -22.982832 -8.421633 7.140842 -1.945766 1.585342 13.204800 8.601845 21.114953 -0.258283 -0.000000 -0.000001 0.000001 0.776294 5.158041 -28.512490 0.566018 2.514176 -25.370943 -0.000003 0.000002 -0.000000 0.776306 5.158027 -28.512486 0.566012 2.514177 -25.370929 -0.000003 -0.000002 0.000000 0.776303 5.158027 -28.512490 0.351474 2.000424 -19.928006 -0.000001 0.000001 0.000000 0.776298 5.158039 -28.512498 0.064898 0.870533 -8.527012 0.000001 0.000000 -0.000000 -0.000001 0.000001 0.000002 -0.000001 0.000001 0.000002 -0.000001 0.000001 0.000002 -0.000001 0.000001 0.000001 -0.000001 0.000000 0.000001 -0.000001 0.000001 0.000001 -0.000000 0.000002 0.000002 0.495734 4.266200 2.985393 -4.348705 2.459901 83.910288 0.000021 129.426498 -0.000024 -0.009923 -5.599745 64.826637 -1.120915 -3.665711 -6.555853 8.244824 -30.620790 -3.274799 0.000003 -0.000003 -0.000001 4.540606 -8.344329 48.387393 6.575539 -4.244512 114.349087 -0.000000 0.000000 -0.000002 2.375471 -6.542186 44.640214 7.222597 -3.888166 123.454809 -0.000000 -0.000001 0.000001 2.745574 -6.923846 44.442292 7.225007 -3.886570 123.490312 -0.000000 -0.000003 0.000003 -10.268033 -14.528504 47.436296 6.314129 -4.353025 110.862925 -0.000001 -0.000000 -0.000000 0.000000 0.000003 -0.000001 0.000000 -0.000000 -0.000000 0.000000 0.000003 -0.000001 0.000001 0.000000 0.000000 0.000001 0.000000 0.000000 0.000001 0.000000 0.000000 0.000001 -0.000000 0.000000 0.000000 0.000000 -0.000000 0.000000 0.000000 -0.000000 0.000000 0.000000 -0.000000 0.000000 0.000000 -0.000000 0.000000 0.000000 -0.000000 0.000000 0.000000 -0.000000 0.000000 0.000000 -0.000000 -0.000000 0.000000 0.000000 0.000000 0.000000 -0.000000 
